<svg width="20" height="20" viewBox="0 0 20 20" fill="none" xmlns="http://www.w3.org/2000/svg">
<path d="M19.9399 18.5626L13.4474 12.0701C14.4549 10.7677 14.9999 9.17516 14.9999 7.50017C14.9999 5.49517 14.2174 3.61518 12.8024 2.19769C11.3874 0.780195 9.50246 0.000198364 7.49997 0.000198364C5.49748 0.000198364 3.61248 0.782695 2.19749 2.19769C0.779996 3.61268 0 5.49517 0 7.50017C0 9.50266 0.782496 11.3876 2.19749 12.8026C3.61248 14.2201 5.49498 15.0001 7.49997 15.0001C9.17496 15.0001 10.765 14.4551 12.0674 13.4501L18.5599 19.9401C18.579 19.9592 18.6016 19.9743 18.6264 19.9846C18.6513 19.9949 18.678 20.0002 18.7049 20.0002C18.7318 20.0002 18.7585 19.9949 18.7834 19.9846C18.8083 19.9743 18.8309 19.9592 18.8499 19.9401L19.9399 18.8526C19.959 18.8336 19.9741 18.811 19.9844 18.7861C19.9947 18.7612 20 18.7345 20 18.7076C20 18.6807 19.9947 18.654 19.9844 18.6291C19.9741 18.6043 19.959 18.5817 19.9399 18.5626ZM11.46 11.4601C10.4 12.5176 8.99496 13.1001 7.49997 13.1001C6.00497 13.1001 4.59998 12.5176 3.53998 11.4601C2.48249 10.4002 1.89999 8.99516 1.89999 7.50017C1.89999 6.00517 2.48249 4.59768 3.53998 3.54018C4.59998 2.48269 6.00497 1.90019 7.49997 1.90019C8.99496 1.90019 10.4025 2.48019 11.46 3.54018C12.5174 4.60018 13.0999 6.00517 13.0999 7.50017C13.0999 8.99516 12.5174 10.4027 11.46 11.4601Z" fill="white"/>
</svg>
